<svg xmlns="http://www.w3.org/2000/svg" viewBox="0 0 24 24" width="24" height="24">
  <path fill-rule="nonzero" d="M14 5L14 2L6 2L6 5L4 5L4 0L16 0L16 5L14 5ZM16 9.5C16.28 9.5 16.52 9.4 16.71 9.21C16.9 9.02 17 8.78 17 8.5C17 8.22 16.9 7.98 16.71 7.79C16.52 7.6 16.28 7.5 16 7.5C15.72 7.5 15.48 7.6 15.29 7.79C15.1 7.98 15 8.22 15 8.5C15 8.78 15.1 9.02 15.29 9.21C15.48 9.4 15.72 9.5 16 9.5ZM14 16L14 12L6 12L6 16L14 16ZM16 18L4 18L4 14L0 14L0 8C0 7.15 0.29 6.44 0.88 5.86C1.46 5.29 2.17 5 3 5L17 5C17.85 5 18.56 5.29 19.14 5.86C19.71 6.44 20 7.15 20 8L20 14L16 14L16 18ZM18 12L18 8C18 7.72 17.9 7.48 17.71 7.29C17.52 7.1 17.28 7 17 7L3 7C2.72 7 2.48 7.1 2.29 7.29C2.1 7.48 2 7.72 2 8L2 12L4 12L4 10L16 10L16 12L18 12Z" fill="#000000" />
</svg>
