<svg width="24" height="24" viewBox="0 0 24 24" fill="none" xmlns="http://www.w3.org/2000/svg">
<path d="M10.05 6.04001C10.59 5.68002 11.3 5.5 12.19 5.5C13.13 5.5 13.88 5.70999 14.42 6.12C14.96 6.54001 15.23 7.09998 15.23 7.79999C15.23 8.23999 15.08 8.63 14.79 9C14.5 9.35999 14.12 9.64001 13.66 9.85001C13.4 10 13.23 10.15 13.14 10.32C13.05 10.5 13 10.72 13 11H11C11 10.5 11.1 10.16 11.29 9.92001C11.5 9.68002 11.84 9.39999 12.36 9.07999C12.62 8.93997 12.83 8.76001 13 8.54001C13.14 8.33002 13.22 8.07999 13.22 7.79999C13.22 7.5 13.13 7.28 12.95 7.10999C12.77 6.92999 12.5 6.85001 12.19 6.85001C11.92 6.85001 11.7 6.91998 11.5 7.06C11.34 7.20001 11.24 7.41 11.24 7.69H9.26999C9.22 7 9.5 6.39999 10.05 6.04001Z" fill="#FFC524"/>
<path fill-rule="evenodd" clip-rule="evenodd" d="M20 2H4C3.47 2 2.95999 2.20999 2.59 2.59C2.20999 2.95999 2 3.47 2 4V16C2 16.53 2.20999 17.04 2.59 17.41C2.95999 17.79 3.47 18 4 18H8L12 22L16 18H20C20.53 18 21.04 17.79 21.41 17.41C21.78 17.03 22 16.53 22 16V4C22 3.47 21.79 2.95999 21.41 2.59C21.04 2.20999 20.53 2 20 2ZM4 16V4H20V16H15.17L12 19.17L8.82999 16H4Z" fill="#FFC524"/>
<path d="M11 14V12H13V14H11Z" fill="#FFC524"/>
</svg>
