<svg xmlns="http://www.w3.org/2000/svg" viewBox="0 0 24 24" width="24" height="24">
  <path fill-rule="nonzero" d="M20 17L17 17L17 20L15 20L15 17L12 17L12 15L15 15L15 12L17 12L17 15L20 15L20 17ZM6 0C4.9 0 4 0.9 4 2L4 3C1.8 3 0 4.8 0 7L0 18C0 19.1 0.9 20 2 20L11.5 20C11 19.4 10.6 18.7 10.3 18L2 18L2 14L4 14L4 16L5 16L5 14L10.3 14C10.4 13.7 10.6 13.3 10.8 13L2 13L2 7C2 5.9 2.9 5 4 5L12 5C13.1 5 14 5.9 14 7L14 10.3C14.6 10.1 15.3 10 16 10L16 7C16 4.8 14.2 3 12 3L12 2C12 0.9 11.1 0 10 0L6 0ZM6 2L10 2L10 3L6 3L6 2ZM8 7L6 9L8 11L10 9L8 7Z" fill="#334355" />
</svg>
