<svg width="18" height="18" viewBox="0 0 18 18" fill="none" xmlns="http://www.w3.org/2000/svg">
<path fill-rule="evenodd" clip-rule="evenodd" d="M18 9C18 9.54999 17.55 10 17 10H16V16H17C17.55 16 18 16.45 18 17C18 17.55 17.55 18 17 18H1C0.45 18 0 17.55 0 17C0 16.45 0.45 16 1 16H2V10H1C0.45 10 0 9.54999 0 9C0 8.45001 0.45 8 1 8H2V2H1C0.45 2 0 1.54999 0 1C0 0.450012 0.45 0 1 0H17C17.55 0 18 0.450012 18 1C18 1.54999 17.55 2 17 2H16V8H17C17.55 8 18 8.45001 18 9ZM4 16H14V10C13.45 10 13 9.54999 13 9C13 8.45001 13.45 8 14 8V2H4V8C4.55 8 5 8.45001 5 9C5 9.54999 4.55 10 4 10V16Z" fill="white"/>
<path d="M6 10.05C6 11.68 7.34 13 9 13C10.66 13 12 11.68 12 10.05C12 8.73999 11.47 8.35999 9 5.5C6.5 8.38 6 8.75 6 10.05Z" fill="#FFC524"/>
</svg>
