<svg xmlns="http://www.w3.org/2000/svg" viewBox="0 0 24 24" width="24" height="24">
  <path fill-rule="nonzero" d="M0 -1C-0.55 -1 -1 -0.55 -1 0C-1 0.55 -0.55 1 0 1L0 0L0 -1ZM15 1C15.55 1 16 0.55 16 0C16 -0.55 15.55 -1 15 -1L15 0L15 1ZM0 0L0 1L15 1L15 0L15 -1L0 -1L0 0Z" fill="currentColor" />
  <path fill-rule="nonzero" d="M0 -1C-0.55 -1 -1 -0.55 -1 0C-1 0.55 -0.55 1 0 1L0 0L0 -1ZM0 0L0 1L3 1L3 0L3 -1L0 -1L0 0Z" fill="currentColor" />
  <path fill-rule="nonzero" d="M0 -1C-0.55 -1 -1 -0.55 -1 0C-1 0.55 -0.55 1 0 1L0 0L0 -1ZM0 0L0 1L3 1L3 0L3 -1L0 -1L0 0Z" fill="currentColor" />
  <path fill-rule="nonzero" d="M0 -1C-0.55 -1 -1 -0.55 -1 0C-1 0.55 -0.55 1 0 1L0 0L0 -1ZM15 1C15.55 1 16 0.55 16 0C16 -0.55 15.55 -1 15 -1L15 0L15 1ZM0 0L0 1L15 1L15 0L15 -1L0 -1L0 0Z" fill="currentColor" />
  <path fill-rule="nonzero" d="M0 -1C-0.55 -1 -1 -0.55 -1 0C-1 0.55 -0.55 1 0 1L0 0L0 -1ZM15 1C15.55 1 16 0.55 16 0C16 -0.55 15.55 -1 15 -1L15 0L15 1ZM0 0L0 1L15 1L15 0L15 -1L0 -1L0 0Z" fill="currentColor" />
  <path fill-rule="nonzero" d="M0 -1C-0.55 -1 -1 -0.55 -1 0C-1 0.55 -0.55 1 0 1L0 0L0 -1ZM15 1C15.55 1 16 0.55 16 0C16 -0.55 15.55 -1 15 -1L15 0L15 1ZM0 0L0 1L15 1L15 0L15 -1L0 -1L0 0Z" fill="currentColor" />
</svg>
