<svg width="11" height="20" viewBox="0 0 11 20" fill="none" xmlns="http://www.w3.org/2000/svg">
<path fill-rule="evenodd" clip-rule="evenodd" d="M9.59998 6.5L8.59998 6.20001C8.29999 6.10004 8 5.70007 8 5.30005V1C8 0.5 7.5 0 7 0H4C3.40002 0 3 0.5 3 1V5.30005C3 5.70007 2.70001 6.10004 2.29999 6.30005L1.40002 6.60004C0.600037 6.90002 0 7.60004 0 8.50006V10.0001H2V8.40002L2.90002 8.10004C4.20001 7.70001 5 6.60004 5 5.30005V5H6V5.30005C6 6.60004 6.79999 7.70001 8 8.10004L9 8.40002V10.0001H11V8.40002C11 7.60004 10.5 6.79999 9.59998 6.5ZM6 2H5V3H6V2Z" fill="white"/>
<path d="M0 18.0001C0 19.1 0.900024 20.0001 2 20.0001H9C10.1 20.0001 11 19.1 11 18.0001V16.0001H9V18.0001H2V16.0001H0V18.0001Z" fill="white"/>
<path d="M0 11.0001V15.0001H11V11.0001H0Z" fill="#FFC524"/>
</svg>
