<svg xmlns="http://www.w3.org/2000/svg" viewBox="0 0 24 24" width="24" height="24">
  <path fill-rule="nonzero" d="M9.73 6C10.79 6 11.81 6.42 12.56 7.17C13.31 7.92 13.73 8.94 13.73 10C13.73 11.06 13.31 12.08 12.56 12.83C11.81 13.58 10.79 14 9.73 14C8.67 14 7.65 13.58 6.9 12.83C6.15 12.08 5.73 11.06 5.73 10C5.73 8.94 6.15 7.92 6.9 7.17C7.65 6.42 8.67 6 9.73 6ZM9.73 8C9.2 8 8.69 8.21 8.32 8.59C7.94 8.96 7.73 9.47 7.73 10C7.73 10.53 7.94 11.04 8.32 11.41C8.69 11.79 9.2 12 9.73 12C10.26 12 10.77 11.79 11.14 11.41C11.52 11.04 11.73 10.53 11.73 10C11.73 9.47 11.52 8.96 11.14 8.59C10.77 8.21 10.26 8 9.73 8ZM7.73 20C7.48 20 7.27 19.82 7.23 19.58L6.86 16.93C6.23 16.68 5.69 16.34 5.17 15.94L2.68 16.95C2.46 17.03 2.19 16.95 2.07 16.73L0.07 13.27C-0.06 13.05 0 12.78 0.19 12.63L2.3 10.97L2.23 10L2.3 9L0.19 7.37C0 7.22 -0.06 6.95 0.07 6.73L2.07 3.27C2.19 3.05 2.46 2.96 2.68 3.05L5.17 4.05C5.69 3.66 6.23 3.32 6.86 3.07L7.23 0.42C7.27 0.18 7.48 0 7.73 0L11.73 0C11.98 0 12.19 0.18 12.23 0.42L12.6 3.07C13.23 3.32 13.77 3.66 14.29 4.05L16.78 3.05C17 2.96 17.27 3.05 17.39 3.27L19.39 6.73C19.52 6.95 19.46 7.22 19.27 7.37L17.16 9L17.23 10L17.16 11L19.27 12.63C19.46 12.78 19.52 13.05 19.39 13.27L17.39 16.73C17.27 16.95 17 17.04 16.78 16.95L14.29 15.95C13.77 16.34 13.23 16.68 12.6 16.93L12.23 19.58C12.19 19.82 11.98 20 11.73 20L7.73 20ZM8.98 2L8.61 4.61C7.41 4.86 6.35 5.5 5.58 6.39L3.17 5.35L2.42 6.65L4.53 8.2C4.13 9.37 4.13 10.64 4.53 11.8L2.41 13.36L3.16 14.66L5.59 13.62C6.36 14.5 7.41 15.14 8.6 15.38L8.97 18L10.49 18L10.86 15.39C12.05 15.14 13.1 14.5 13.87 13.62L16.3 14.66L17.05 13.36L14.93 11.81C15.33 10.64 15.33 9.37 14.93 8.2L17.04 6.65L16.29 5.35L13.88 6.39C13.11 5.5 12.05 4.86 10.85 4.62L10.48 2L8.98 2Z" fill="#334355" />
</svg>
