<svg xmlns="http://www.w3.org/2000/svg" viewBox="0 0 24 24" width="24" height="24">
  <path fill-rule="evenodd" d="M12.54 13.6C12.24 13.8 11.84 13.8 11.54 13.6L11.54 17.3C11.64 18 11.74 18.7 12.04 19.3L11.14 19.8C10.94 19.9 10.74 20 10.54 20C10.34 20 10.14 19.9 9.94 19.8L2.04 15.4C1.74 15.2 1.54 14.9 1.54 14.5L1.54 9C1.24 9.2 0.84 9.2 0.54 9C0.04 8.7 -0.16 8.1 0.14 7.6L1.64 5C1.74 4.8 1.94 4.7 2.14 4.6L9.94 0.2C10.14 0.1 10.34 0 10.54 0C10.74 0 10.94 0.1 11.14 0.2L19.04 4.6C19.24 4.7 19.34 4.9 19.44 5.1L20.94 7.6C21.14 8.1 21.04 8.7 20.54 9L19.54 9.6L19.54 11.4C18.94 11.1 18.24 11 17.54 11L17.54 10.7L12.54 13.6ZM3.54 13.9L9.54 17.3L9.54 10.6L3.54 7.2L3.54 13.9ZM12.34 11.3L18.64 7.7L18.04 6.7L11.74 10.3L12.34 11.3ZM10.54 2.2L10.54 8.8L16.54 5.5L10.54 2.2Z" fill="currentColor" />
  <path fill-rule="nonzero" d="M18.54 13L18.54 16L21.54 16L21.54 18L18.54 18L18.54 21L16.54 21L16.54 18L13.54 18L13.54 16L16.54 16L16.54 13L18.54 13Z" fill="#ffc524" />
</svg>
