<svg xmlns="http://www.w3.org/2000/svg" viewBox="0 0 24 24" width="24" height="24">
  <path fill-rule="evenodd" d="M16 4L19 4L22 8L22 13L20 13C20 14.7 18.7 16 17 16C15.3 16 14 14.7 14 13L8 13C8 14.7 6.7 16 5 16C3.3 16 2 14.7 2 13L0 13L0 2C0 0.9 0.9 0 2 0L16 0L16 4ZM3.5 13C3.5 13.8 4.2 14.5 5 14.5C5.8 14.5 6.5 13.8 6.5 13C6.5 12.2 5.8 11.5 5 11.5C4.2 11.5 3.5 12.2 3.5 13ZM7.2 11L14 11L14 2L2 2L2 11L2.8 11C3.3 10.4 4.1 10 5 10C5.9 10 6.7 10.4 7.2 11ZM15.5 13C15.5 13.8 16.2 14.5 17 14.5C17.8 14.5 18.5 13.8 18.5 13C18.5 12.2 17.8 11.5 17 11.5C16.2 11.5 15.5 12.2 15.5 13ZM16 5.5L16 8L20.5 8L18.5 5.5L16 5.5Z" fill="currentColor" />
  <path fill-rule="nonzero" d="M5 7L5 5L11 5L11 7L5 7Z" fill="#ffc524" />
</svg>
