<svg xmlns="http://www.w3.org/2000/svg" viewBox="0 0 24 24" width="24" height="24">
  <path fill-rule="evenodd" d="M18 9C18 9.55 17.55 10 17 10L16 10L16 16L17 16C17.55 16 18 16.45 18 17C18 17.55 17.55 18 17 18L1 18C0.45 18 0 17.55 0 17C0 16.45 0.45 16 1 16L2 16L2 10L1 10C0.45 10 0 9.55 0 9C0 8.45 0.45 8 1 8L2 8L2 2L1 2C0.45 2 0 1.55 0 1C0 0.45 0.45 0 1 0L17 0C17.55 0 18 0.45 18 1C18 1.55 17.55 2 17 2L16 2L16 8L17 8C17.55 8 18 8.45 18 9ZM4 16L14 16L14 10C14 10 14 8.55 14 8L14 2L4 2L4 8C4 8.55 4 10 4 10L4 16Z" fill="currentColor" />
  <path fill-rule="nonzero" d="M10 5L10 8L13 8L13 10L10 10L10 13L8 13L8 10L5 10L5 8L8 8L8 5L10 5Z" fill="#ffc524" />
</svg>
