<svg xmlns="http://www.w3.org/2000/svg" viewBox="0 0 24 24" width="24" height="24">
  <path fill-rule="evenodd" d="M14 14L14 12L18 12L18 12.17C18.48 12.06 18.98 12 19.5 12C19.67 12 19.83 12.01 20 12.02L20 10L19 0L16 0L15 10L10 6L10 10L5 6L5 10L0 6L0 20L13.17 20C13.06 19.52 13 19.02 13 18.5C13 16.75 13.68 15.17 14.8 14L14 14ZM2 18L2 16L6 16L6 18L2 18ZM2 14L2 12L12 12L12 14L2 14ZM8 18L8 16L12 16L12 18L8 18Z" fill="#334355" />
  <path fill-rule="nonzero" d="M15 18L18 15L18 17L22 17L22 19L18 19L18 21L15 18Z" fill="#ffc524" />
</svg>
