<svg xmlns="http://www.w3.org/2000/svg" viewBox="0 0 24 24" width="24" height="24">
  <path fill-rule="evenodd" d="M11.84 6.86C9.15 6.86 6.97 8.91 6.97 11.43C6.97 13.61 8.61 15.47 10.88 15.91L16.7 11.27C16.62 8.81 14.46 6.86 11.84 6.86ZM9.4 11.43C9.4 12.7 10.5 13.71 11.84 13.71C13.19 13.71 14.27 12.69 14.27 11.43C14.27 10.17 13.17 9.14 11.84 9.14C10.5 9.14 9.4 10.16 9.4 11.43Z" fill="#334355" />
  <path fill-rule="nonzero" d="M23.59 7.69L21.15 3.74C21.01 3.49 20.69 3.38 20.41 3.49L17.38 4.63C16.76 4.16 16.09 3.78 15.33 3.49L14.88 0.48C14.83 0.21 14.57 0 14.27 0L9.4 0C9.1 0 8.84 0.21 8.8 0.48L8.35 3.51C7.58 3.81 6.92 4.18 6.29 4.65L3.32 3.49C3.04 3.38 2.71 3.49 2.58 3.74L0.15 7.69C-0.01 7.93 0.05 8.25 0.28 8.42L2.8 10.29L2.71 11.43L2.8 12.57L0.23 14.43C-0.01 14.61 -0.07 14.93 0.09 15.17L2.52 19.12C2.65 19.43 3.01 19.55 3.32 19.43L6.36 18.29C6.66 18.5 6.97 18.71 7.29 18.89L9.29 17.29C8.36 16.91 7.53 16.35 6.86 15.63L3.93 16.78L2.99 15.29L5.51 13.49C5.03 12.15 5.03 10.71 5.51 9.37L2.95 7.6L3.86 6.11L6.79 7.26C7.74 6.23 9.02 5.51 10.44 5.22L10.92 2.29L12.75 2.29L13.2 5.28C14.62 5.55 15.9 6.29 16.85 7.3L19.78 6.16L20.69 7.65L18.16 9.37C18.27 9.67 18.36 9.98 18.4 10.29L20.84 10.29L23.39 8.42C23.66 8.26 23.73 7.94 23.59 7.69Z" fill="#334355" />
  <path fill-rule="nonzero" d="M15.49 17.14L15.49 13.71L19.13 13.71L19.13 11.43L24 15.43L19.13 19.43L19.13 17.14L15.49 17.14Z" fill="#ffc524" />
</svg>
