<svg xmlns="http://www.w3.org/2000/svg" viewBox="0 0 24 24" width="24" height="24">
  <path fill-rule="evenodd" d="M9 20L10.26 18.74C10.1 18.22 10 17.57 10 17L2 17L2 3L16 3L16 11C16.7 11 17.37 11.13 18 11.35L18 0L16.5 1.5L15 0L13.5 1.5L12 0L10.5 1.5L9 0L7.5 1.5L6 0L4.5 1.5L3 0L1.5 1.5L0 0L0 20L1.5 18.5L3 20L4.5 18.5L6 20L7.5 18.5L9 20ZM10.35 15C10.61 14.25 11 13.58 11.54 13L3 13L3 15L10.35 15ZM15 9L3 9L3 11L15 11L15 9ZM15 5L3 5L3 7L15 7L15 5Z" fill="currentColor" />
  <path fill-rule="nonzero" d="M15 13L15 16L12 16L12 18L15 18L15 21L17 21L17 18L20 18L20 16L17 16L17 13L15 13Z" fill="#ffc524" />
</svg>
