<svg xmlns="http://www.w3.org/2000/svg" viewBox="0 0 24 24" width="24" height="24">
  <path fill-rule="evenodd" d="M14 15C14 16.1 14.89 17 16 17C16.53 17 17.04 16.79 17.41 16.41C17.79 16.04 18 15.53 18 15C18 14.47 17.79 13.96 17.41 13.59C17.04 13.21 16.53 13 16 13C14.89 13 14 13.89 14 15ZM13.17 12.17C13.92 11.42 14.94 11 16 11C17.06 11 18.08 11.42 18.83 12.17C19.58 12.92 20 13.94 20 15C20 16.06 19.58 17.08 18.83 17.83C18.08 18.58 17.06 19 16 19C14.94 19 13.92 18.58 13.17 17.83C12.42 17.08 12 16.06 12 15C12 13.94 12.42 12.92 13.17 12.17ZM2 15C2 16.1 2.89 17 4 17C4.53 17 5.04 16.79 5.41 16.41C5.79 16.04 6 15.53 6 15C6 14.47 5.79 13.96 5.41 13.59C5.04 13.21 4.53 13 4 13C2.89 13 2 13.89 2 15ZM1.17 12.17C1.92 11.42 2.94 11 4 11C5.06 11 6.08 11.42 6.83 12.17C7.58 12.92 8 13.94 8 15C8 16.06 7.58 17.08 6.83 17.83C6.08 18.58 5.06 19 4 19C2.94 19 1.92 18.58 1.17 17.83C0.42 17.08 0 16.06 0 15C0 13.94 0.42 12.92 1.17 12.17ZM11.41 2.59C11.04 2.21 10.53 2 10 2C8.89 2 8 2.89 8 4C8 5.1 8.89 6 10 6C10.53 6 11.04 5.79 11.41 5.41C11.79 5.04 12 4.53 12 4C12 3.47 11.79 2.96 11.41 2.59ZM12.83 6.83C12.08 7.58 11.06 8 10 8C8.94 8 7.92 7.58 7.17 6.83C6.42 6.08 6 5.06 6 4C6 2.94 6.42 1.92 7.17 1.17C7.92 0.42 8.94 0 10 0C11.06 0 12.08 0.42 12.83 1.17C13.58 1.92 14 2.94 14 4C14 5.06 13.58 6.08 12.83 6.83Z" fill="currentColor" />
  <path fill-rule="nonzero" d="M10 9.1C9.75 9.1 9.5 9.15 9.27 9.24C9.04 9.34 8.83 9.48 8.66 9.66C8.48 9.83 8.34 10.04 8.24 10.27C8.15 10.5 8.1 10.75 8.1 11C8.1 11.5 8.3 11.99 8.66 12.34C9.01 12.7 9.5 12.9 10 12.9C10.5 12.9 10.99 12.7 11.34 12.34C11.7 11.99 11.9 11.5 11.9 11C11.9 10.75 11.85 10.5 11.76 10.27C11.66 10.04 11.52 9.83 11.34 9.66C11.17 9.48 10.96 9.34 10.73 9.24C10.5 9.15 10.25 9.1 10 9.1Z" fill="#ffc524" />
</svg>
