<svg xmlns="http://www.w3.org/2000/svg" viewBox="0 0 24 24" width="24" height="24">
  <path fill-rule="evenodd" d="M18 4L18 10.11C19.24 11.37 20 13.09 20 15C20 18.87 16.87 22 13 22C11.09 22 9.37 21.24 8.11 20L2 20C0.9 20 0 19.11 0 18L0 4C0 2.9 0.9 2 2 2L6.18 2C6.6 0.84 7.7 0 9 0C10.3 0 11.4 0.84 11.82 2L16 2C17.11 2 18 2.9 18 4ZM10 3C10 2.45 9.55 2 9 2C8.45 2 8 2.45 8 3C8 3.55 8.45 4 9 4C9.55 4 10 3.55 10 3ZM2 4L2 18L6.68 18C6.25 17.09 6 16.08 6 15C6 14.66 6.03 14.33 6.08 14L4 14L4 12L6.68 12C7.04 11.25 7.5 10.57 8.1 10L4 10L4 8L13 8C14.08 8 15.09 8.25 16 8.68L16 4L14 4L14 6L4 6L4 4L2 4ZM8 15C8 17.76 10.24 20 13 20C15.76 20 18 17.76 18 15C18 12.24 15.76 10 13 10C10.24 10 8 12.24 8 15Z" fill="#ffc524" />
  <path fill-rule="nonzero" d="M13.5 15.25L16.36 16.94L15.61 18.16L12 16L12 11L13.5 11L13.5 15.25Z" fill="currentColor" />
</svg>
