<svg xmlns="http://www.w3.org/2000/svg" viewBox="0 0 24 24" width="24" height="24">
  <path fill-rule="nonzero" d="M4.59 24L4.59 18.67L0 18.67L0 10.67C0 9.53 0.33 8.58 1 7.82C1.67 7.05 2.49 6.67 3.44 6.67L19.52 6.67C20.5 6.67 21.32 7.05 21.98 7.82C22.64 8.58 22.97 9.53 22.97 10.67L22.97 11.67C22.62 11.44 22.26 11.26 21.88 11.1C21.49 10.94 21.09 10.83 20.67 10.77L20.67 10.67C20.67 10.29 20.56 9.97 20.34 9.72C20.12 9.46 19.85 9.33 19.52 9.33L3.44 9.33C3.12 9.33 2.85 9.46 2.63 9.72C2.41 9.97 2.3 10.29 2.3 10.67L2.3 16L4.59 16L4.59 13.33L14.35 13.33C14.05 13.71 13.77 14.12 13.52 14.57C13.27 15.01 13.07 15.49 12.92 16L6.89 16L6.89 21.33L12.75 21.33C12.88 21.82 13.04 22.29 13.23 22.73C13.43 23.18 13.66 23.6 13.92 24L4.59 24ZM18.32 22.9L15.04 19.13L16.68 17.27L18.32 19.13L22.36 14.43L24 16.3L18.32 22.9ZM16.08 6.67L16.08 2.67L6.89 2.67L6.89 6.67L4.59 6.67L4.59 0L18.37 0L18.37 6.67L16.08 6.67Z" fill="#ffc524" />
</svg>
