<svg xmlns="http://www.w3.org/2000/svg" viewBox="0 0 24 24" width="24" height="24">
  <path fill-rule="nonzero" d="M16 0L2 0C0.9 0 0 0.9 0 2L0 16C0 17.1 0.9 18 2 18L16 18C17.1 18 18 17.1 18 16L18 2C18 0.9 17.1 0 16 0ZM6.5 8.5C6.5 9.3 5.8 10 5 10L4 10L4 12L2.5 12L2.5 6L5 6C5.8 6 6.5 6.7 6.5 7.5L6.5 8.5ZM11.5 10.5C11.5 11.3 10.8 12 10 12L7.5 12L7.5 6L10 6C10.8 6 11.5 6.7 11.5 7.5L11.5 10.5ZM15.5 7.5L14 7.5L14 8.5L15.5 8.5L15.5 10L14 10L14 12L12.5 12L12.5 6L15.5 6L15.5 7.5ZM9 7.5L10 7.5L10 10.5L9 10.5L9 7.5ZM4 7.5L5 7.5L5 8.5L4 8.5L4 7.5Z" fill="#ffc524" />
</svg>
