<svg xmlns="http://www.w3.org/2000/svg" viewBox="0 0 24 24" width="24" height="24">
  <path fill-rule="nonzero" d="M2 16L3 16L3 2C3 1.47 3.21 0.96 3.59 0.59C3.96 0.21 4.47 0 5 0L7 0C7.53 0 8.04 0.21 8.41 0.59C8.79 0.96 9 1.47 9 2L9 11.03C8.37 12.04 8 13.23 8 14.5C8 16.82 9.21 18.85 11.03 20L0 20L0 18C0 17.47 0.21 16.96 0.59 16.59C0.96 16.21 1.47 16 2 16Z" fill="currentColor" />
  <path fill-rule="nonzero" d="M19.75 10.66C19.91 10.48 20 10.25 20 10C20 9.73 19.89 9.48 19.71 9.29C19.52 9.11 19.27 9 19 9L19 5C19 4.47 18.79 3.96 18.41 3.59C18.04 3.21 17.53 3 17 3L10 3L10 7L15 7L15 8.02C16.95 8.17 18.66 9.17 19.75 10.66Z" fill="currentColor" />
  <path fill-rule="nonzero" d="M1.59 6.41C1.21 6.04 1 5.53 1 5C1 4.47 1.21 3.96 1.59 3.59C1.71 3.46 1.85 3.35 2 3.27L2 6.73C1.85 6.65 1.71 6.54 1.59 6.41Z" fill="currentColor" />
  <path fill-rule="nonzero" d="M21.39 20L20 21.39L16.88 18.32C16.19 18.75 15.37 19 14.5 19C12 19 10 17 10 14.5C10 12 12 10 14.5 10C17 10 19 12 19 14.5C19 15.38 18.75 16.21 18.31 16.9L21.39 20ZM17 14.5C17 13.12 15.88 12 14.5 12C13.12 12 12 13.12 12 14.5C12 15.88 13.12 17 14.5 17C15.88 17 17 15.88 17 14.5Z" fill="#ffc524" />
</svg>
