<svg xmlns="http://www.w3.org/2000/svg" viewBox="0 0 24 24" width="24" height="24">
  <path fill-rule="nonzero" d="M19.2 19.2C19.84 19.2 20.45 19.45 20.9 19.9C21.35 20.35 21.6 20.96 21.6 21.6C21.6 22.24 21.35 22.85 20.9 23.3C20.45 23.75 19.84 24 19.2 24C17.87 24 16.8 22.92 16.8 21.6C16.8 20.27 17.87 19.2 19.2 19.2ZM0 0L3.92 0L5.05 2.4L22.8 2.4C23.12 2.4 23.42 2.53 23.65 2.75C23.87 2.98 24 3.28 24 3.6C24 3.8 23.94 4.01 23.86 4.2L19.56 11.96C19.15 12.7 18.36 13.2 17.46 13.2L8.52 13.2L7.44 15.16L7.4 15.3C7.4 15.38 7.44 15.46 7.49 15.51C7.55 15.57 7.62 15.6 7.7 15.6L21.6 15.6L21.6 18L7.2 18C5.87 18 4.8 16.92 4.8 15.6C4.8 15.18 4.91 14.78 5.09 14.45L6.72 11.51L2.4 2.4L0 2.4L0 0ZM7.2 19.2C7.84 19.2 8.45 19.45 8.9 19.9C9.35 20.35 9.6 20.96 9.6 21.6C9.6 22.24 9.35 22.85 8.9 23.3C8.45 23.75 7.84 24 7.2 24C5.87 24 4.8 22.92 4.8 21.6C4.8 20.27 5.87 19.2 7.2 19.2ZM18 10.8L21.34 4.8L6.17 4.8L9 10.8L18 10.8Z" fill="currentColor" />
</svg>
