<svg xmlns="http://www.w3.org/2000/svg" viewBox="0 0 20 20" width="20" height="20">
  <path fill-rule="nonzero" d="M19.9 6.54L18.85 1.69C18.63 0.69 17.85 0 16.94 0L3.05 0C2.15 0 1.36 0.7 1.15 1.69L0.09 6.54C-0.15 7.68 0.07 8.83 0.71 9.74C0.79 9.87 0.9 9.96 0.99 10.07L0.99 17.78C0.99 19 1.9 20 3 20L17 20C18.1 20 19 19 19 17.78L19 10.07C19.09 9.97 19.2 9.87 19.28 9.76C19.92 8.84 20.15 7.68 19.9 6.54ZM16.91 2.21L17.96 7.07C18.06 7.53 17.97 8 17.71 8.37C17.57 8.57 17.27 8.89 16.77 8.89C16.16 8.89 15.63 8.34 15.56 7.62L14.98 2.22L16.91 2.21ZM11 2.22L12.96 2.22L13.5 7.24C13.55 7.68 13.43 8.11 13.17 8.43C12.95 8.72 12.63 8.89 12.22 8.89C11.55 8.89 11 8.23 11 7.43L11 2.22ZM6.49 7.24L7.04 2.22L9 2.22L9 7.43C9 8.23 8.45 8.89 7.71 8.89C7.37 8.89 7.06 8.72 6.82 8.43C6.57 8.11 6.45 7.68 6.49 7.24ZM2.04 7.07L3.05 2.22L5.02 2.22L4.44 7.62C4.36 8.34 3.84 8.89 3.23 8.89C2.74 8.89 2.43 8.57 2.3 8.37C2.03 8.01 1.94 7.53 2.04 7.07ZM3 17.78L3 11.08C3.08 11.09 3.15 11.11 3.23 11.11C4.1 11.11 4.89 10.71 5.47 10.06C6.07 10.72 6.87 11.11 7.78 11.11C8.65 11.11 9.43 10.71 10.01 10.08C10.6 10.71 11.4 11.11 12.3 11.11C13.14 11.11 13.94 10.72 14.54 10.06C15.12 10.71 15.91 11.11 16.78 11.11C16.86 11.11 16.93 11.09 17.01 11.08L17.01 17.78L3 17.78Z" fill="#ffc524" />
</svg>
