<svg xmlns="http://www.w3.org/2000/svg" viewBox="0 0 24 24" width="24" height="24">
  <path fill-rule="nonzero" d="M3 5L15 5L15 7L3 7L3 5Z" fill="#ffc524" />
  <path fill-rule="nonzero" d="M3 9L15 9L15 11L3 11L3 9Z" fill="#ffc524" />
  <path fill-rule="evenodd" d="M15 0L16.5 1.5L18 0L18 20L16.5 18.5L15 20L13.5 18.5L12 20L10.5 18.5L9 20L7.5 18.5L6 20L4.5 18.5L3 20L1.5 18.5L0 20L0 0L1.5 1.5L3 0L4.5 1.5L6 0L7.5 1.5L9 0L10.5 1.5L12 0L13.5 1.5L15 0ZM2 3L2 17L16 17L16 3L2 3Z" fill="currentColor" />
  <path fill-rule="nonzero" d="M3 13L15 13L15 15L3 15L3 13Z" fill="#ffc524" />
</svg>
