<svg xmlns="http://www.w3.org/2000/svg" viewBox="0 0 24 24" width="24" height="24">
  <path fill-rule="nonzero" d="M1.41 0L0 1.41L5 6.4C3.34 6.4 2 7.74 2 9.4L2 15.4L6 15.4L6 19.4L18 19.4L20.95 22.36L22.36 20.95L1.41 0ZM6 13.4L4 13.4L4 9.4C4 8.85 4.45 8.4 5 8.4L7 8.4L10 11.4L6 11.4L6 13.4ZM8 17.4L8 13.4L12 13.4L16 17.4L8 17.4ZM8 3.4L16 3.4L16 6.4L10.66 6.4L12.66 8.4L19 8.4C19.55 8.4 20 8.85 20 9.4L20 13.4L18 13.41L18 11.4L15.66 11.4L19.66 15.4L22 15.4L22 9.4C22 7.74 20.66 6.4 19 6.4L22 15.4L18 1.4L6 1.4L6 1.76L8 3.76L8 3.4Z" fill="currentColor" />
  <path fill-rule="nonzero" d="M18.83 10.83C18.6 11.09 18.32 11.21 17.98 11.21C17.64 11.21 17.36 11.09 17.13 10.83C16.9 10.58 16.78 10.26 16.78 9.88C16.78 9.5 16.9 9.19 17.13 8.93C17.36 8.68 17.64 8.55 17.98 8.55C18.32 8.55 18.6 8.68 18.83 8.93C19.06 9.19 19.18 9.5 19.18 9.88C19.18 10.26 19.06 10.58 18.83 10.83Z" fill="#ffc524" />
</svg>
