<svg xmlns="http://www.w3.org/2000/svg" viewBox="0 0 24 24" width="24" height="24">
  <path fill-rule="nonzero" d="M16.8 6.67L16.8 2.67L7.2 2.67L7.2 6.67L4.8 6.67L4.8 0L19.2 0L19.2 6.67L16.8 6.67ZM19.2 12.67C19.54 12.67 19.82 12.54 20.05 12.28C20.28 12.03 20.4 11.71 20.4 11.33C20.4 10.96 20.28 10.64 20.05 10.38C19.82 10.13 19.54 10 19.2 10C18.86 10 18.58 10.13 18.35 10.38C18.12 10.64 18 10.96 18 11.33C18 11.71 18.12 12.03 18.35 12.28C18.58 12.54 18.86 12.67 19.2 12.67ZM16.8 21.33L16.8 16L7.2 16L7.2 21.33L16.8 21.33ZM19.2 24L4.8 24L4.8 18.67L0 18.67L0 10.67C0 9.53 0.35 8.58 1.05 7.82C1.75 7.05 2.6 6.67 3.6 6.67L20.4 6.67C21.42 6.67 22.28 7.05 22.97 7.82C23.66 8.58 24 9.53 24 10.67L24 18.67L19.2 18.67L19.2 24ZM21.6 16L21.6 10.67C21.6 10.29 21.48 9.97 21.25 9.72C21.02 9.46 20.74 9.33 20.4 9.33L3.6 9.33C3.26 9.33 2.97 9.46 2.74 9.72C2.51 9.97 2.4 10.29 2.4 10.67L2.4 16L4.8 16L4.8 13.33L19.2 13.33L19.2 16L21.6 16Z" fill="currentColor" />
</svg>
