<svg xmlns="http://www.w3.org/2000/svg" viewBox="0 0 24 24" width="24" height="24">
  <path fill-rule="nonzero" d="M14.4 0L0 2.67L0 21.33L14.4 24L14.4 21.33L22.8 21.33C23.46 21.33 24 20.74 24 20L24 4C24 3.26 23.46 2.67 22.8 2.67L14.4 2.67L14.4 0ZM12 3.15L12 20.85L2.4 19.08L2.4 4.92L12 3.15ZM14.4 5.33L16.8 5.33L16.8 8L14.4 8L14.4 5.33ZM19.2 5.33L21.6 5.33L21.6 8L19.2 8L19.2 5.33ZM3.81 7.06L6.07 11.99L3.6 16.94L5.68 16.94L7.03 13.74C7.12 13.44 7.18 13.21 7.21 13.06L7.23 13.06C7.28 13.38 7.34 13.6 7.39 13.72L8.73 16.93L10.8 16.93L8.41 11.96L10.73 7.06L8.79 7.06L7.55 9.99C7.43 10.37 7.35 10.66 7.31 10.85L7.28 10.85C7.21 10.54 7.14 10.26 7.05 10.02L5.94 7.06L3.81 7.06ZM14.4 10.67L16.8 10.67L16.8 13.33L14.4 13.33L14.4 10.67ZM19.2 10.67L21.6 10.67L21.6 13.33L19.2 13.33L19.2 10.67ZM14.4 16L16.8 16L16.8 18.67L14.4 18.67L14.4 16ZM19.2 16L21.6 16L21.6 18.67L19.2 18.67L19.2 16Z" fill="#ffc524" />
</svg>
