<svg xmlns="http://www.w3.org/2000/svg" viewBox="0 0 24 24" width="24" height="24">
  <path fill-rule="evenodd" d="M6 19L6.86 18.43L6.86 16L6 16.6L3 14.6L2 15.26L2 2L16 2L16 7.22C16.64 6.93 17.37 6.93 18 7.2L18 0L0 0L0 19L3 17L6 19ZM17.73 12.17L18.71 11.19C18.91 11 18.91 10.67 18.71 10.47L17.39 9.15C17.37 9.13 17.34 9.1 17.31 9.09C17.12 8.96 16.86 8.97 16.69 9.13L15.69 10.13L17.73 12.17ZM14 4L14 6L4 6L4 4L14 4ZM12 8L12 10L4 10L4 8L12 8Z" fill="currentColor" />
  <path fill-rule="nonzero" d="M8.86 16.96L15 10.83L17.03 12.87L10.9 19L8.86 19L8.86 16.96Z" fill="#ffc524" />
</svg>
