<svg xmlns="http://www.w3.org/2000/svg" viewBox="0 0 24 24" width="24" height="24">
  <path fill-rule="evenodd" d="M5.88 11.14C5.96 11.34 6.04 11.55 6.13 11.75C6.29 12.11 6.47 12.47 6.67 12.81C6.59 12.99 6.5 13.16 6.4 13.33C6.29 13.53 6.17 13.72 6.05 13.9C5.67 14.48 5.23 15 4.82 15.43C4.3 15.97 3.81 16.39 3.47 16.66C3.18 16.88 3 17 3 17C1.95 15.95 1.24 14.41 0.81 13.19C0.64 12.72 0.51 12.29 0.42 11.96C0.3 11.52 0.25 11.25 0.25 11.25L0.29 11.24C0.76 11.18 1.22 11.09 1.65 10.97C2.3 10.79 2.91 10.54 3.48 10.25C3.72 10.13 3.94 10 4.17 9.87C4.54 9.64 4.9 9.39 5.25 9.13C5.29 9.29 5.34 9.46 5.39 9.65C5.52 10.1 5.68 10.62 5.88 11.14ZM4.13 12.16C3.7 12.37 3.24 12.56 2.76 12.72C2.93 13.18 3.13 13.64 3.36 14.07C3.72 13.69 4.09 13.25 4.4 12.77C4.31 12.57 4.22 12.36 4.13 12.16Z" fill="currentColor" />
  <path fill-rule="evenodd" d="M17.71 11.24L17.75 11.25C17.75 11.25 17.7 11.52 17.58 11.96C17.49 12.29 17.36 12.72 17.19 13.19C16.76 14.41 16.05 15.95 15 17C15 17 14.82 16.88 14.53 16.66C14.19 16.39 13.7 15.97 13.18 15.43C12.77 15 12.33 14.48 11.95 13.9C11.83 13.72 11.71 13.53 11.6 13.33C11.5 13.16 11.41 12.99 11.33 12.81C11.53 12.47 11.71 12.11 11.87 11.75C11.96 11.55 12.04 11.34 12.12 11.14C12.32 10.62 12.48 10.1 12.61 9.65C12.66 9.46 12.71 9.29 12.75 9.13C13.1 9.39 13.46 9.64 13.83 9.87C14.06 10 14.28 10.13 14.52 10.25C15.09 10.54 15.7 10.79 16.35 10.97C16.78 11.09 17.24 11.18 17.71 11.24ZM15.24 12.72C14.76 12.56 14.3 12.37 13.87 12.16C13.78 12.36 13.69 12.57 13.6 12.77C13.91 13.25 14.28 13.69 14.64 14.07C14.87 13.64 15.07 13.18 15.24 12.72Z" fill="currentColor" />
  <path fill-rule="evenodd" d="M11.99 17.07C10.84 18.65 9 19.75 9 19.75C9 19.75 7.16 18.65 6.01 17.07C5.82 16.81 5.64 16.54 5.5 16.25C5.5 16.25 5.81 15.99 6.21 15.52C6.4 15.3 6.6 15.04 6.8 14.74C6.99 14.46 7.18 14.15 7.35 13.8C7.57 14.05 7.8 14.28 8.05 14.48C8.19 14.59 8.33 14.69 8.49 14.77C8.64 14.86 8.81 14.94 8.98 14.99L9 15L9.02 14.99C9.19 14.94 9.36 14.86 9.51 14.77C9.67 14.69 9.81 14.59 9.95 14.48C10.2 14.28 10.43 14.05 10.65 13.8C10.82 14.15 11.01 14.46 11.2 14.74C11.4 15.04 11.6 15.3 11.79 15.52C12.19 15.99 12.5 16.25 12.5 16.25C12.36 16.54 12.18 16.81 11.99 17.07ZM9.49 13.6C9.62 13.49 9.77 13.35 9.93 13.18C10.14 12.96 10.37 12.69 10.59 12.38C10.9 11.96 11.2 11.46 11.44 10.88C11.66 10.36 11.83 9.78 11.93 9.13C11.94 9.07 11.95 9 11.96 8.93C11.98 8.79 11.99 8.65 12 8.5C11.67 8.19 11.36 7.88 11.08 7.56C10.75 7.19 10.45 6.81 10.2 6.46C9.83 5.95 9.54 5.49 9.34 5.14C9.11 4.75 9 4.5 9 4.5C9 4.5 8.89 4.75 8.66 5.14C8.46 5.49 8.17 5.95 7.8 6.46C7.55 6.81 7.25 7.19 6.92 7.56C6.64 7.88 6.33 8.19 6 8.5C6.01 8.65 6.02 8.79 6.04 8.93C6.05 9 6.06 9.07 6.07 9.13C6.17 9.78 6.34 10.36 6.56 10.88C6.81 11.46 7.1 11.96 7.41 12.38C7.63 12.69 7.86 12.96 8.07 13.18C8.23 13.35 8.38 13.49 8.51 13.6C8.52 13.62 8.54 13.63 8.56 13.65C8.82 13.88 9 14 9 14C9 14 9.18 13.88 9.44 13.65C9.46 13.63 9.48 13.62 9.49 13.6ZM9.88 9.22C9.7 10.01 9.36 10.66 9 11.17C8.64 10.66 8.3 10.01 8.12 9.22C8.44 8.87 8.74 8.52 9 8.19C9.26 8.52 9.56 8.87 9.88 9.22Z" fill="currentColor" />
  <path fill-rule="evenodd" d="M10.05 3.31C9.9 2.9 9.78 2.47 9.69 2.01C9.62 1.66 9.57 1.29 9.54 0.9C9.51 0.61 9.5 0.31 9.5 0C9.5 0 9.89 0 10.5 0.1C10.79 0.14 11.13 0.21 11.51 0.31C13.74 0.92 17.12 2.69 17.86 7.87C17.92 8.31 17.96 8.77 17.98 9.26L17.99 9.35C18 9.56 18 9.78 18 10C18 10 17.97 9.99 17.91 9.98C17.66 9.91 16.92 9.7 15.98 9.27C15.39 9 14.71 8.65 14.02 8.19C13.9 8.11 13.78 8.02 13.66 7.94C13.44 7.77 13.21 7.6 12.99 7.42C12.47 6.98 11.96 6.48 11.5 5.9C11.04 5.32 10.62 4.65 10.29 3.9C10.2 3.71 10.12 3.51 10.05 3.31ZM11.91 2.56C12.51 4.28 13.67 5.5 14.9 6.37C15.14 6.53 15.37 6.68 15.6 6.82C14.99 4.7 13.8 3.6 12.74 2.97C12.46 2.81 12.18 2.68 11.91 2.56Z" fill="#ffc524" />
  <path fill-rule="evenodd" d="M4.34 7.94C4.22 8.02 4.1 8.11 3.98 8.19C3.29 8.65 2.61 9 2.02 9.27C1.08 9.7 0.34 9.91 0.09 9.98C0.03 9.99 0 10 0 10C0 9.78 0 9.56 0.01 9.35L0.02 9.26C0.04 8.77 0.08 8.31 0.14 7.87C0.88 2.69 4.26 0.92 6.49 0.31C6.87 0.21 7.21 0.14 7.5 0.1C8.11 0 8.5 0 8.5 0C8.5 0.31 8.49 0.61 8.46 0.9C8.43 1.29 8.38 1.66 8.31 2.01C8.22 2.47 8.1 2.9 7.95 3.31C7.88 3.51 7.8 3.71 7.71 3.9C7.38 4.65 6.96 5.32 6.5 5.9C6.04 6.48 5.53 6.98 5.01 7.42C4.79 7.6 4.56 7.77 4.34 7.94ZM2.4 6.82C2.63 6.68 2.86 6.53 3.1 6.37C4.33 5.5 5.49 4.28 6.09 2.56C5.82 2.68 5.54 2.81 5.26 2.97C4.2 3.6 3.01 4.7 2.4 6.82Z" fill="#ffc524" />
</svg>
