<svg xmlns="http://www.w3.org/2000/svg" viewBox="0 0 24 24" width="24" height="24">
  <path fill-rule="evenodd" d="M4 9C3.67 9 2 8.9 2 7L2 6C2 4.17 3.54 4 4 4L14.18 4C14.6 5.16 15.7 6 17 6C17.8 6 18.56 5.68 19.12 5.12C19.68 4.56 20 3.8 20 3C20 2.2 19.68 1.44 19.12 0.88C18.56 0.32 17.8 0 17 0C15.7 0 14.6 0.84 14.18 2L4 2C2.39 2 0 3.06 0 6L0 7C0 9.94 2.39 11 4 11L5.86 11L5.86 9L4 9ZM17.71 2.29C17.52 2.11 17.27 2 17 2C16.73 2 16.48 2.11 16.29 2.29C16.11 2.48 16 2.73 16 3C16 3.27 16.11 3.52 16.29 3.71C16.48 3.89 16.73 4 17 4C17.27 4 17.52 3.89 17.71 3.71C17.89 3.52 18 3.27 18 3C18 2.73 17.89 2.48 17.71 2.29Z" fill="#334355" />
  <path fill-rule="evenodd" d="M16 11C16.33 11 18 11.1 18 13L18 14C18 15.83 16.46 16 16 16L5.82 16C5.4 14.84 4.3 14 3 14C2.2 14 1.44 14.32 0.88 14.88C0.32 15.44 0 16.2 0 17C0 17.8 0.32 18.56 0.88 19.12C1.44 19.68 2.2 20 3 20C4.3 20 5.4 19.16 5.82 18L16 18C17.61 18 20 16.93 20 14L20 13C20 10.07 17.61 9 16 9L13.86 9L13.86 11L16 11ZM2.29 17.71C2.48 17.89 2.73 18 3 18C3.27 18 3.52 17.89 3.71 17.71C3.89 17.52 4 17.27 4 17C4 16.73 3.89 16.48 3.71 16.29C3.52 16.11 3.27 16 3 16C2.73 16 2.48 16.11 2.29 16.29C2.11 16.48 2 16.73 2 17C2 17.27 2.11 17.52 2.29 17.71Z" fill="#334355" />
  <path fill-rule="nonzero" d="M12.82 9C12.4 7.84 11.3 7 10 7C8.7 7 7.6 7.84 7.18 9L7.18 11C7.6 12.16 8.7 13 10 13C11.3 13 12.4 12.16 12.82 11L12.82 9Z" fill="#ffc524" />
</svg>
