<svg xmlns="http://www.w3.org/2000/svg" viewBox="0 0 24 24" width="24" height="24">
  <path fill-rule="nonzero" d="M22 0L9 0C7.9 0 7 0.9 7 2L7 11C7 12.11 7.9 13 9 13L22 13C23.11 13 24 12.11 24 11L24 2C24 0.9 23.11 0 22 0ZM22 3.67L15.5 7L9 3.67L9 2L15.5 5.31L22 2L22 3.67ZM5 11C5 11.17 5.03 11.33 5.05 11.5L1 11.5C0.45 11.5 0 11.05 0 10.5C0 9.95 0.45 9.5 1 9.5L5 9.5L5 11ZM3 1.5L5.05 1.5C5.03 1.67 5 1.83 5 2L5 3.5L3 3.5C2.45 3.5 2 3.05 2 2.5C2 1.95 2.45 1.5 3 1.5ZM1 6.5C1 5.95 1.45 5.5 2 5.5L5 5.5L5 7.5L2 7.5C1.45 7.5 1 7.05 1 6.5Z" fill="currentColor" />
</svg>
