<svg xmlns="http://www.w3.org/2000/svg" viewBox="0 0 24 24" width="24" height="24">
  <path fill-rule="evenodd" d="M18.5 13C18.5 13.83 17.83 14.5 17 14.5C16.17 14.5 15.5 13.83 15.5 13C15.5 12.17 16.17 11.5 17 11.5C17.83 11.5 18.5 12.17 18.5 13ZM16 5.5L18.5 5.5L20.46 8L16 8L16 5.5ZM6.5 13C6.5 13.83 5.83 14.5 5 14.5C4.17 14.5 3.5 13.83 3.5 13C3.5 12.17 4.17 11.5 5 11.5C5.83 11.5 6.5 12.17 6.5 13ZM22 8L19 4L16 4L16 0L2 0C0.89 0 0 0.89 0 2L0 13L2 13C2 14.66 3.34 16 5 16C6.66 16 8 14.66 8 13L14 13C14 14.66 15.34 16 17 16C18.66 16 20 14.66 20 13L22 13L22 8ZM2 11L2 2L14 2L14 11L7.24 11C6.69 10.39 5.89 10 5 10C4.11 10 3.31 10.39 2.76 11L2 11Z" fill="#334355" />
  <path fill-rule="nonzero" d="M9 3L12.5 6.5L9 10L9 7.5L4 7.5L4 5.5L9 5.5L9 3Z" fill="#ffc524" />
</svg>
