<svg xmlns="http://www.w3.org/2000/svg" viewBox="0 0 24 24" width="24" height="24">
  <path fill-rule="nonzero" d="M8.79 13.09L8.79 2.91L1.47 2.91L1.47 13.09L8.79 13.09ZM8.79 0C9.18 0 9.55 0.15 9.83 0.43C10.1 0.7 10.26 1.07 10.26 1.45L10.26 14.55C10.26 14.93 10.1 15.3 9.83 15.57C9.55 15.85 9.18 16 8.79 16L1.47 16C0.65 16 0 15.35 0 14.55L0 1.45C0 0.65 0.65 0 1.47 0L8.79 0ZM2.93 4.36L7.33 4.36L7.33 5.82L2.93 5.82L2.93 4.36ZM2.93 7.27L5.86 7.27L5.86 8.73L2.93 8.73L2.93 7.27Z" fill="currentColor" />
</svg>
