<svg xmlns="http://www.w3.org/2000/svg" viewBox="0 0 24 24" width="24" height="24">
  <path fill-rule="nonzero" d="M0.58 10.24C0.01 9.92 -0.16 9.22 0.16 8.67L1.87 5.71C2 5.48 2.19 5.32 2.41 5.23L11.36 0.21C11.54 0.07 11.77 0 12.01 0C12.25 0 12.48 0.07 12.66 0.21L21.69 5.28C21.9 5.39 22.09 5.58 22.19 5.8L23.85 8.68C24.17 9.23 23.97 9.93 23.43 10.24L22.29 10.9L22.29 16.57C22.29 17 22.05 17.38 21.69 17.57L12.66 22.65C12.48 22.78 12.25 22.85 12.01 22.85C11.77 22.85 11.54 22.78 11.36 22.65L2.33 17.57C1.96 17.38 1.72 17 1.72 16.57L1.72 10.24C1.38 10.43 0.95 10.44 0.58 10.24ZM12.01 2.46L12.01 10.11L18.82 6.28L12.01 2.46ZM4.01 15.89L10.87 19.76L10.87 12.09L4.01 8.24L4.01 15.89ZM20.01 15.89L20.01 12.21L14.29 15.53C13.92 15.73 13.49 15.72 13.15 15.54L13.15 19.76L20.01 15.89ZM14.12 12.98L21.3 8.83L20.63 7.68L13.46 11.83L14.12 12.98Z" fill="currentColor" />
</svg>
