<svg xmlns="http://www.w3.org/2000/svg" viewBox="0 0 24 24" width="24" height="24">
  <path fill-rule="nonzero" d="M18.55 15.82C19.45 15.82 20.18 15.09 20.18 14.18C20.18 13.28 19.45 12.55 18.55 12.55C17.64 12.55 16.91 13.28 16.91 14.18C16.91 15.09 17.64 15.82 18.55 15.82ZM20.18 6L17.45 6L17.45 8.73L22.32 8.73L20.18 6ZM5.45 15.82C6.36 15.82 7.09 15.09 7.09 14.18C7.09 13.28 6.36 12.55 5.45 12.55C4.55 12.55 3.82 13.28 3.82 14.18C3.82 15.09 4.55 15.82 5.45 15.82ZM20.73 4.36L24 8.73L24 14.18L21.82 14.18C21.82 15.99 20.36 17.45 18.55 17.45C16.73 17.45 15.27 15.99 15.27 14.18L8.73 14.18C8.73 15.99 7.27 17.45 5.45 17.45C3.64 17.45 2.18 15.99 2.18 14.18L0 14.18L0 2.18C0 0.97 0.97 0 2.18 0L17.45 0L17.45 4.36L20.73 4.36ZM2.18 2.18L2.18 12L3.01 12C3.61 11.33 4.48 10.91 5.45 10.91C6.43 10.91 7.3 11.33 7.9 12L15.27 12L15.27 2.18L2.18 2.18Z" fill="currentColor" />
</svg>
