<svg xmlns="http://www.w3.org/2000/svg" viewBox="0 0 24 24" width="24" height="24">
  <path fill-rule="nonzero" d="M7.3 4.5C8.09 4.5 8.86 4.82 9.42 5.38C9.98 5.94 10.3 6.7 10.3 7.5C10.3 8.3 9.98 9.06 9.42 9.62C8.86 10.18 8.09 10.5 7.3 10.5C6.5 10.5 5.74 10.18 5.18 9.62C4.61 9.06 4.3 8.3 4.3 7.5C4.3 6.7 4.61 5.94 5.18 5.38C5.74 4.82 6.5 4.5 7.3 4.5ZM7.3 6C6.9 6 6.52 6.16 6.24 6.44C5.96 6.72 5.8 7.1 5.8 7.5C5.8 7.9 5.96 8.28 6.24 8.56C6.52 8.84 6.9 9 7.3 9C7.69 9 8.08 8.84 8.36 8.56C8.64 8.28 8.8 7.9 8.8 7.5C8.8 7.1 8.64 6.72 8.36 6.44C8.08 6.16 7.69 6 7.3 6ZM5.8 15C5.61 15 5.45 14.86 5.42 14.68L5.14 12.7C4.67 12.51 4.27 12.25 3.88 11.95L2.01 12.71C1.84 12.77 1.64 12.71 1.55 12.55L0.05 9.95C-0.05 9.79 0 9.58 0.14 9.47L1.72 8.23L1.67 7.5L1.72 6.75L0.14 5.53C0 5.41 -0.05 5.21 0.05 5.05L1.55 2.45C1.64 2.29 1.84 2.22 2.01 2.29L3.88 3.04C4.27 2.74 4.67 2.49 5.14 2.3L5.42 0.31C5.45 0.13 5.61 0 5.8 0L8.8 0C8.98 0 9.14 0.13 9.17 0.31L9.45 2.3C9.92 2.49 10.33 2.74 10.72 3.04L12.58 2.29C12.75 2.22 12.95 2.29 13.04 2.45L14.54 5.05C14.64 5.21 14.59 5.41 14.45 5.53L12.87 6.75L12.92 7.5L12.87 8.25L14.45 9.47C14.59 9.58 14.64 9.79 14.54 9.95L13.04 12.55C12.95 12.71 12.75 12.78 12.58 12.71L10.72 11.96C10.33 12.25 9.92 12.51 9.45 12.7L9.17 14.68C9.14 14.86 8.98 15 8.8 15L5.8 15ZM6.73 1.5L6.46 3.46C5.56 3.64 4.76 4.13 4.18 4.79L2.38 4.01L1.81 4.99L3.4 6.15C3.1 7.03 3.1 7.98 3.4 8.85L1.81 10.02L2.37 10.99L4.19 10.21C4.77 10.87 5.56 11.35 6.45 11.53L6.73 13.5L7.87 13.5L8.14 11.54C9.04 11.35 9.82 10.87 10.4 10.21L12.22 10.99L12.79 10.02L11.2 8.86C11.5 7.98 11.5 7.03 11.2 6.15L12.78 4.99L12.22 4.01L10.41 4.79C9.83 4.13 9.04 3.64 8.14 3.46L7.86 1.5L6.73 1.5Z" fill="#ffc524" />
</svg>
