<svg xmlns="http://www.w3.org/2000/svg" viewBox="0 0 24 24" width="24" height="24">
  <path fill-rule="nonzero" d="M2 0C0.89 0 0 0.9 0 2L0 14C0 15.1 0.89 16 2 16L18 16C19.11 16 20 15.1 20 14L20 2C20 0.9 19.11 0 18 0L2 0ZM2 2L18 2L18 14L2 14L2 2ZM8 4C6.94 4 5.92 4.42 5.17 5.17C4.42 5.92 4 6.94 4 8C4 9.06 4.42 10.08 5.17 10.83C5.92 11.58 6.94 12 8 12C8.71 12 9.41 11.81 10.02 11.45C10.61 11.79 11.28 12 12 12C14.2 12 16 10.2 16 8C16 5.8 14.2 4 12 4C11.28 4 10.61 4.21 10.02 4.55C9.41 4.19 8.71 4 8 4ZM12 6C13.1 6 14 6.9 14 8C14 9.1 13.1 10 12 10C11.83 10 11.66 9.97 11.5 9.93C11.83 9.34 12 8.67 12 8C12 7.32 11.83 6.66 11.5 6.07C11.66 6.03 11.83 6 12 6Z" fill="#ffc524" />
</svg>
