<svg xmlns="http://www.w3.org/2000/svg" viewBox="0 0 24 24" width="24" height="24">
  <path fill-rule="nonzero" d="M16 8.5C16 7.12 17.12 6 18.5 6C19.88 6 21 7.12 21 8.5C21 9.88 19.88 11 18.5 11C17.12 11 16 9.88 16 8.5ZM13 0L13 17L24 17L24 0L13 0ZM22 13C20.9 13 20 13.9 20 15L17 15C17 13.9 16.11 13 15 13L15 4C16.11 4 17 3.11 17 2L20 2C20 3.11 20.9 4 22 4L22 13ZM7 3C8.1 3 9 3.9 9 5C9 6.1 8.1 7 7 7C5.9 7 5 6.1 5 5C5 3.9 5.9 3 7 3ZM7 1C4.79 1 3 2.79 3 5C3 7.21 4.79 9 7 9C9.21 9 11 7.21 11 5C11 2.79 9.21 1 7 1ZM7 11C3.13 11 0 12.79 0 15L0 17L11 17L11 15L2 15C2 14.42 3.75 13 7 13C8.83 13 10.17 13.45 11 13.95L11 11.72C9.87 11.27 8.5 11 7 11Z" fill="#334355" />
</svg>
