<svg xmlns="http://www.w3.org/2000/svg" viewBox="0 0 24 24" width="24" height="24">
  <path fill-rule="evenodd" d="M18 9C18 9.55 17.55 10 17 10L16 10L16 16L17 16C17.55 16 18 16.45 18 17C18 17.55 17.55 18 17 18L1 18C0.45 18 0 17.55 0 17C0 16.45 0.45 16 1 16L2 16L2 10L1 10C0.45 10 0 9.55 0 9C0 8.45 0.45 8 1 8L2 8L2 2L1 2C0.45 2 0 1.55 0 1C0 0.45 0.45 0 1 0L17 0C17.55 0 18 0.45 18 1C18 1.55 17.55 2 17 2L16 2L16 8L17 8C17.55 8 18 8.45 18 9ZM4 16L14 16L14 10C13.45 10 13 9.55 13 9C13 8.45 13.45 8 14 8L14 2L4 2L4 8C4.55 8 5 8.45 5 9C5 9.55 4.55 10 4 10L4 16Z" fill="#334355" />
  <path fill-rule="nonzero" d="M6 10.05C6 11.68 7.34 13 9 13C10.66 13 12 11.68 12 10.05C12 8.74 11.47 8.36 9 5.5C6.5 8.38 6 8.75 6 10.05Z" fill="#ffc524" />
</svg>
