<svg xmlns="http://www.w3.org/2000/svg" viewBox="0 0 24 24" width="24" height="24">
  <path fill-rule="nonzero" d="M14 10C14.7 10 15.37 10.1 16 10.29L16 9C16 7.9 15.1 7 14 7L13 7L13 5C13 2.24 10.76 0 8 0C5.24 0 3 2.24 3 5L3 7L2 7C0.9 7 0 7.9 0 9L0 19C0 20.1 0.9 21 2 21L8.26 21C7.47 19.87 7 18.49 7 17C7 13.13 10.13 10 14 10ZM4.9 5C4.9 3.29 6.29 1.9 8 1.9C9.71 1.9 11.1 3.29 11.1 5L11.1 7L4.9 7L4.9 5Z" fill="currentColor" />
  <path fill-rule="nonzero" d="M5 0C2.24 0 0 2.24 0 5C0 7.76 2.24 10 5 10C7.76 10 10 7.76 10 5C10 2.24 7.76 0 5 0ZM5 2C5.83 2 6.5 2.67 6.5 3.5C6.5 4.33 5.83 5 5 5C4.17 5 3.5 4.33 3.5 3.5C3.5 2.67 4.17 2 5 2ZM5 8C3.97 8 3.06 7.48 2.52 6.68C3.25 6.26 4.09 6 5 6C5.91 6 6.75 6.26 7.48 6.68C6.94 7.48 6.03 8 5 8Z" fill="currentColor" />
</svg>
