<svg xmlns="http://www.w3.org/2000/svg" viewBox="0 0 24 24" width="24" height="24">
  <path fill-rule="nonzero" d="M18 0L14 2L14 4L11.83 6.17L13.83 8.17L16 6L18 6L20 2L18 0Z" fill="#ffc524" />
  <path fill-rule="evenodd" d="M19.71 18.29L18.29 19.71C18.1 19.9 17.85 20 17.59 20C17.32 20 17.07 19.9 16.88 19.71L5 7.85C4.68 7.94 4.34 7.99 4 8C3.36 8 2.74 7.85 2.17 7.56C1.6 7.26 1.12 6.84 0.75 6.32C0.38 5.8 0.14 5.21 0.05 4.58C-0.05 3.94 0.01 3.3 0.22 2.7L2.76 5.24L5.24 2.76L2.7 0.22C3.3 0.01 3.95 -0.05 4.58 0.04C5.21 0.14 5.81 0.38 6.32 0.75C6.84 1.12 7.26 1.6 7.56 2.17C7.85 2.74 8 3.36 8 4C8 4.34 7.95 4.67 7.85 5L19.71 16.88C19.9 17.07 20 17.32 20 17.58C20 17.85 19.9 18.1 19.71 18.29Z" fill="#334355" />
  <path fill-rule="nonzero" d="M0.29 16.88C0.1 17.07 0 17.32 0 17.58C0 17.85 0.1 18.1 0.29 18.29L1.71 19.71C1.9 19.9 2.15 20 2.42 20C2.68 20 2.93 19.9 3.12 19.71L8.59 14.25L5.76 11.42L0.29 16.88Z" fill="#ffc524" />
</svg>
