<svg xmlns="http://www.w3.org/2000/svg" viewBox="0 0 24 24" width="24" height="24">
  <path fill-rule="nonzero" d="M20 14L20 2L2 2L2 14L20 14ZM20 0C20.53 0 21.04 0.21 21.41 0.59C21.79 0.96 22 1.47 22 2L22 14C22 14.53 21.79 15.04 21.41 15.41C21.04 15.79 20.53 16 20 16L13 16L13 18L15 18L15 20L7 20L7 18L9 18L9 16L2 16C0.89 16 0 15.1 0 14L0 2C0 0.89 0.89 0 2 0L20 0ZM4 4L13 4L13 9L4 9L4 4ZM14 4L18 4L18 6L14 6L14 4ZM18 7L18 12L14 12L14 7L18 7ZM4 10L8 10L8 12L4 12L4 10ZM9 10L13 10L13 12L9 12L9 10Z" fill="currentColor" />
</svg>
