<svg xmlns="http://www.w3.org/2000/svg" viewBox="0 0 24 24" width="24" height="24">
  <path fill-rule="nonzero" d="M10 10L0 10L0 13L10 13L10 10Z" fill="#ffc524" />
  <path fill-rule="nonzero" d="M4.15 5.09L5 4.92L5.85 5.09C7.41 5.41 8 6.39 8 7L8 8L10 8L10 7C10 5.81 9.35 4.73 8.31 4C7.73 3.59 7.03 3.29 6.25 3.13L6.25 2L8.75 2L8.75 0L1.25 0L1.25 2L3.75 2L3.75 3.13C2.97 3.29 2.27 3.59 1.69 4C0.65 4.73 0 5.81 0 7L0 8L2 8L2 7C2 6.39 2.59 5.41 4.15 5.09Z" fill="currentColor" />
  <path fill-rule="nonzero" d="M2 15L2 17.87C2.09 17.93 2.26 18 2.5 18L7.5 18C7.74 18 7.91 17.93 8 17.87L8 15L10 15L10 18C10 18.53 9.74 19.04 9.27 19.41C8.8 19.79 8.16 20 7.5 20L2.5 20C1.84 20 1.2 19.79 0.73 19.41C0.26 19.04 0 18.53 0 18L0 15L2 15Z" fill="currentColor" />
</svg>
