<svg xmlns="http://www.w3.org/2000/svg" viewBox="0 0 20 20" width="20" height="20" fill="none">
  <path d="M9.72934 6C10.7902 6 11.8076 6.42145 12.5578 7.17157C13.3079 7.92169 13.7293 8.93915 13.7293 10C13.7293 11.0609 13.3079 12.0782 12.5578 12.8284C11.8076 13.5785 10.7902 14 9.72934 14C8.66849 14 7.65106 13.5785 6.90091 12.8284C6.15076 12.0782 5.72934 11.0609 5.72934 10C5.72934 8.93915 6.15076 7.92169 6.90091 7.17157C7.65106 6.42145 8.66849 6 9.72934 6ZM9.72934 8C9.19891 8 8.69019 8.21069 8.31512 8.58575C7.94006 8.96082 7.72934 9.46954 7.72934 10C7.72934 10.5305 7.94006 11.0391 8.31512 11.4142C8.69019 11.7892 9.19891 12 9.72934 12C10.2598 12 10.7685 11.7892 11.1436 11.4142C11.5186 11.0391 11.7293 10.5305 11.7293 10C11.7293 9.46954 11.5186 8.96082 11.1436 8.58575C10.7685 8.21069 10.2598 8 9.72934 8ZM7.72934 20C7.47934 20 7.26935 19.8199 7.22934 19.58L6.85934 16.93C6.22934 16.68 5.68933 16.34 5.16934 15.9399L2.67935 16.95C2.45935 17.03 2.18933 16.95 2.06934 16.73L0.0693358 13.27C-0.060669 13.05 -0.000671491 12.78 0.189331 12.6299L2.29935 10.97L2.22934 10L2.29935 9L0.189331 7.37C-0.000671491 7.21997 -0.060669 6.94995 0.0693358 6.72998L2.06934 3.26996C2.18933 3.04999 2.45935 2.95996 2.67935 3.04999L5.16934 4.04999C5.68933 3.65997 6.22934 3.31995 6.85934 3.06995L7.22934 0.419983C7.26935 0.179993 7.47934 0 7.72934 0H11.7293C11.9793 0 12.1893 0.179993 12.2293 0.419983L12.5993 3.06995C13.2293 3.31995 13.7693 3.65997 14.2893 4.04999L16.7793 3.04999C16.9993 2.95996 17.2693 3.04999 17.3893 3.26996L19.3893 6.72998C19.5193 6.94995 19.4594 7.21997 19.2693 7.37L17.1593 9L17.2293 10L17.1593 11L19.2693 12.6299C19.4594 12.78 19.5193 13.05 19.3893 13.27L17.3893 16.73C17.2693 16.95 16.9993 17.04 16.7793 16.95L14.2893 15.95C13.7693 16.34 13.2293 16.68 12.5993 16.93L12.2293 19.58C12.1893 19.8199 11.9793 20 11.7293 20H7.72934ZM8.97934 2L8.60934 4.60999C7.40933 4.85999 6.34933 5.49994 5.57935 6.38995L3.16934 5.34998L2.41934 6.64996L4.52933 8.19995C4.12933 9.36993 4.12933 10.64 4.52933 11.8L2.40933 13.36L3.15933 14.66L5.58932 13.62C6.35931 14.5 7.40933 15.14 8.59933 15.3799L8.96933 18H10.4893L10.8593 15.39C12.0493 15.14 13.0994 14.5 13.8694 13.62L16.2993 14.66L17.0493 13.36L14.9294 11.81C15.3293 10.64 15.3293 9.36993 14.9294 8.19995L17.0393 6.64996L16.2893 5.34998L13.8793 6.38995C13.1093 5.49994 12.0493 4.85999 10.8493 4.62L10.4793 2H8.97934Z" fill="currentColor"/>
</svg>
