<svg xmlns="http://www.w3.org/2000/svg" viewBox="0 0 24 24" width="24" height="24">
  <path fill-rule="nonzero" d="M19.95 0L19.95 3.24L13.09 7.58C12.19 8.15 11.11 8.45 9.99 8.45L9.99 8.45C8.87 8.45 7.8 8.15 6.89 7.58L0 3.24L0 0.05L19.95 0Z" fill="#ffc524" />
  <path fill-rule="nonzero" d="M4.3 5.14C4.3 5.46 4.04 5.72 3.71 5.72L0.59 5.72C0.27 5.72 0 5.46 0 5.14C0 4.83 0.27 4.57 0.59 4.57L1.35 4.57L1.35 0L2.96 0L2.96 4.57L3.71 4.57C4.04 4.57 4.3 4.83 4.3 5.14Z" fill="currentColor" />
  <path fill-rule="nonzero" d="M4.3 5.14C4.3 5.46 4.04 5.72 3.71 5.72L0.59 5.72C0.27 5.72 0 5.46 0 5.14C0 4.83 0.27 4.57 0.59 4.57L1.35 4.57L1.35 0L2.96 0L2.96 4.57L3.71 4.57C4.04 4.57 4.3 4.83 4.3 5.14Z" fill="currentColor" />
  <path fill-rule="nonzero" d="M10.25 15.66C9.1 15.66 8 15.35 7.07 14.77L0 10.32L0 0L20.47 0L20.47 10.32L13.43 14.76C12.5 15.35 11.4 15.66 10.25 15.66L10.25 15.66ZM1.98 9.44L8.23 13.37C9.44 14.13 11.06 14.13 12.27 13.37L18.49 9.44L18.49 1.72L1.98 1.72L1.98 9.44Z" fill="currentColor" />
  <path fill-rule="nonzero" d="M1.82 0L18.66 0C19.14 0 19.6 0.19 19.95 0.53C20.29 0.88 20.48 1.34 20.48 1.82L20.48 2.31L0 2.31L0 1.82C0 1.34 0.19 0.88 0.53 0.53C0.88 0.19 1.34 0 1.82 0Z" fill="currentColor" />
  <path fill-rule="nonzero" d="M2.47 4.93C1.98 4.93 1.5 4.79 1.1 4.52C0.69 4.25 0.37 3.86 0.19 3.41C0 2.96 -0.05 2.46 0.05 1.99C0.14 1.51 0.38 1.07 0.72 0.72C1.07 0.38 1.51 0.14 1.99 0.05C2.46 -0.05 2.96 0 3.41 0.19C3.86 0.37 4.25 0.69 4.52 1.1C4.79 1.5 4.93 1.98 4.93 2.47C4.93 3.12 4.67 3.75 4.21 4.21C3.75 4.67 3.12 4.93 2.47 4.93ZM2.47 1.2C2.22 1.2 1.97 1.27 1.76 1.41C1.55 1.55 1.39 1.75 1.29 1.98C1.2 2.21 1.17 2.47 1.22 2.71C1.27 2.96 1.39 3.19 1.57 3.36C1.75 3.54 1.97 3.66 2.22 3.71C2.46 3.76 2.72 3.73 2.95 3.64C3.18 3.54 3.38 3.38 3.52 3.17C3.66 2.96 3.74 2.72 3.74 2.47C3.73 2.13 3.6 1.81 3.36 1.57C3.13 1.33 2.8 1.2 2.47 1.2Z" fill="currentColor" />
  <path fill-rule="nonzero" d="M0.59 3.05C0.43 3.05 0.28 2.99 0.17 2.88C0.06 2.77 0 2.62 0 2.47L0 0.59C0 0.43 0.06 0.28 0.17 0.17C0.28 0.06 0.43 0 0.59 0C0.74 0 0.89 0.06 1 0.17C1.11 0.28 1.17 0.43 1.17 0.59L1.17 2.47C1.17 2.62 1.11 2.77 1 2.88C0.89 2.99 0.74 3.05 0.59 3.05Z" fill="currentColor" />
</svg>
