<svg xmlns="http://www.w3.org/2000/svg" viewBox="0 0 24 24" width="24" height="24">
  <path fill-rule="nonzero" d="M11 4.5L9 4.5L9 2.5L11 2.5L11 4.5ZM11 9L9 9L9 7L11 7L11 9ZM11 13.5L9 13.5L9 11.5L11 11.5L11 13.5ZM20 6L20 2C20 0.89 19.1 0 18 0L2 0C1.47 0 0.96 0.21 0.59 0.59C0.21 0.96 0 1.47 0 2L0 6C1.11 6 2 6.9 2 8C2 8.53 1.79 9.04 1.41 9.41C1.04 9.79 0.53 10 0 10L0 14C0 14.53 0.21 15.04 0.59 15.41C0.96 15.79 1.47 16 2 16L18 16C18.53 16 19.04 15.79 19.41 15.41C19.79 15.04 20 14.53 20 14L20 10C19.47 10 18.96 9.79 18.59 9.41C18.21 9.04 18 8.53 18 8C18 7.47 18.21 6.96 18.59 6.59C18.96 6.21 19.47 6 20 6Z" fill="currentColor" />
</svg>
