<svg xmlns="http://www.w3.org/2000/svg" viewBox="0 0 247 256" width="247" height="256">
  <path fill-rule="evenodd" d="M98.43 8.22C104.37 4.81 109.82 2.31 113.94 1.11C117.03 0.21 118.63 0.02 123.44 0C131.03 -0.03 133.37 0.72 146.78 7.42C152.44 10.25 158.45 13.06 160.14 13.67C163.42 14.85 171.02 16.47 180.29 17.95C191.99 19.83 196.62 21.78 201.84 27.05C206.79 32.06 212.19 40.84 215.11 48.66C217 53.72 219.22 56.56 229.51 67.17C238.88 76.81 242.42 81.18 244.57 85.72C245.94 88.62 245.98 88.84 246.11 95.76C246.23 101.9 246.07 104.11 244.86 112.41C243.58 121.17 243.48 122.58 243.72 129.2C243.87 133.61 244.34 138.39 244.91 141.47C246.08 147.81 246.58 162.23 245.77 165.96C244.38 172.3 241.21 176.72 229.57 188.56C219.74 198.54 217.6 201.46 212.87 211.33C207.42 222.69 204.53 226.89 199.55 230.7C194.11 234.87 188.01 236.91 174.97 238.93C161.3 241.04 157.53 242.29 146.57 248.36C134.79 254.89 131.91 255.8 123.06 255.8C117.16 255.8 116.19 255.68 112.94 254.62C110.96 253.97 105 251.23 99.7 248.53C86.35 241.72 84.32 241.09 64.96 237.63C53.51 235.58 47.9 232.93 42.85 227.17C38.89 222.66 33.27 212.83 30.29 205.2C28.68 201.08 27.2 199.25 17.58 189.43C5.32 176.92 2.43 172.91 0.68 166C-0.31 162.05 0.06 154.05 1.83 141.25C3.5 129.22 3.44 125.63 1.41 113.65C-0.19 104.2 -0.47 93.53 0.77 89.31C2.63 83 7.54 76.12 15.1 69.24C24.19 60.95 27.82 56 33.76 43.72C35.91 39.3 38.33 34.63 39.15 33.36C42.43 28.25 48.38 23.31 54.24 20.84C58.48 19.06 62.67 18.06 72.04 16.61C84.61 14.66 90.49 12.79 98.43 8.22Z" fill="#334355" />
  <path fill-rule="evenodd" d="M91.81 6.9C97.52 3.45 103.08 1.19 108.07 0.29C111.52 -0.33 117.78 0.09 121.29 1.17C122.97 1.69 128.94 4.47 134.57 7.35C146.45 13.42 148.34 14.05 162.45 16.52C173.51 18.46 176.53 19.35 180.33 21.83C186.15 25.62 189.25 29.86 194.93 41.8C196.93 46.01 199.19 50.4 199.95 51.54C200.71 52.69 204.79 57.08 209.02 61.31C219.57 71.85 223.48 77.39 224.77 83.59C225.43 86.81 225.08 94.31 223.9 101.93C221.78 115.63 221.79 119.15 223.97 131.36C224.68 135.31 224.92 138.44 224.94 143.87C224.96 150.32 224.85 151.46 223.95 154.19C221.9 160.42 218.27 165.38 210.16 173.11C202.29 180.59 199.48 184.41 194.82 193.94C188.54 206.75 186.38 209.84 181.33 213.25C177.06 216.13 171.99 217.72 161 219.64C151.48 221.3 144.44 223.1 140.4 224.9C138.99 225.53 135.58 227.41 132.82 229.1C127.12 232.56 121.13 234.9 116.02 235.66C109.07 236.68 103.05 234.98 91.65 228.79C80.75 222.86 77.75 221.85 64.01 219.42C51.37 217.18 47.85 216.07 43.12 212.83C38.59 209.73 34.75 204.02 30 193.31C26.53 185.49 24.27 182.33 16.79 174.85C9.46 167.51 4.11 160.71 1.76 155.73C0.27 152.57 0.2 152.2 0.04 146.72C-0.1 141.78 0.07 139.86 1.29 132.66C3.13 121.82 3.13 117.54 1.27 104.13C0.11 95.71 -0.08 93.15 0.1 88.76C0.52 79.01 2.72 75.1 14.35 63.51C23.39 54.5 25.66 51.32 31.11 40.01C35.4 31.14 37.44 27.96 40.95 24.68C45.75 20.2 51.68 17.93 63.97 15.85C78.45 13.41 83.97 11.63 91.81 6.9ZM133.48 13.21C124.68 8.47 121.44 7.06 117.38 6.21C110.14 4.71 106.83 5.53 92.76 12.33C80.15 18.42 76.79 19.48 62.92 21.8C55.17 23.1 51.19 24.45 47.25 27.1C43 29.97 41.41 32.26 35.54 43.96C29.51 55.97 27.2 59.03 17.55 67.78C10.7 73.98 7.42 79.14 6.2 85.61C5.37 90.05 5.6 94.73 7.17 105.01C7.88 109.64 8.34 114.6 8.39 118.07L8.47 123.66L98.02 123.67C147.27 123.67 194.08 123.8 202.02 123.96L216.47 124.25L216.48 118.8C216.49 115.8 216.78 111.28 217.12 108.74C217.46 106.2 217.75 103.93 217.76 103.69C217.77 103.4 208.15 103.28 189.57 103.35L161.36 103.45L145.88 87.57L130.4 71.7L128.94 72.21C122.28 74.55 115.29 68.22 117.15 61.54C118.24 57.61 122 54.72 126.02 54.72C131.97 54.72 136.64 61.33 134.56 66.82C134.21 67.75 134.28 68.26 134.89 69.22C136.5 71.75 161.38 96.84 162.9 97.47C164.1 97.96 168.95 98.15 186.23 98.39C198.23 98.56 210.43 98.56 213.34 98.39L218.63 98.08L218.94 96.49C219.11 95.62 219.25 93.03 219.25 90.73C219.24 85.76 218.17 81.78 215.75 77.67C214.25 75.12 212.85 73.65 202.88 64.12C198.67 60.09 195.85 55.76 189.98 44.31C183.14 30.97 181.28 28.56 175.58 25.71C172.1 23.96 168.2 22.97 157.58 21.12C145.82 19.07 142.11 17.85 133.48 13.21ZM124.74 67.45C128.86 68.82 131.96 63.83 128.82 60.88C128.17 60.27 127.28 59.99 125.98 59.99C121.29 59.99 120.29 65.97 124.74 67.45ZM216.59 156.8C219.52 150.95 220.06 143.33 218.22 133.88L217.17 128.5L112.53 128.5L7.89 128.5L7.39 130.81C6.4 135.4 5.64 141.53 5.64 144.85L5.64 147.6L6.72 147.6C11.73 146.94 62.62 146.12 65.95 147.91C66.66 148.29 73.74 155.18 81.68 163.2L96.11 177.8L97.75 177.25C103.41 175.37 109.59 179.46 110.09 185.42C110.33 188.24 109.45 190.21 106.91 192.57C103.58 195.67 99.73 195.94 95.93 193.35C92.5 191 91 186.38 92.5 182.75L93.21 181.04L79.21 167.18C71.51 159.55 64.69 153.02 64.06 152.65C63.08 152.09 58.98 152 34.72 152C6.72 152 6.52 152 6.79 152.87C8.05 157.04 10.61 160.36 19.82 169.78C24.57 174.65 28.97 179.58 30.01 181.2C31.01 182.77 33.86 188.23 36.35 193.34C40.23 201.33 41.24 203.04 43.57 205.54C48.07 210.39 52.78 212.2 67.26 214.6C79 216.56 81.59 217.41 91.88 222.67C101.77 227.72 104.69 228.86 109.55 229.54C116.08 230.45 121.83 228.8 133.92 222.5C144.08 217.21 146.86 216.31 159.62 214.15C168.37 212.67 172.32 211.6 176.06 209.69C181.34 207 183.6 204 189.43 191.92C194.96 180.46 195.99 179.03 204.47 170.88C212.13 163.53 214.73 160.51 216.59 156.8ZM104.95 186.03C104.95 184.71 104.67 183.95 103.88 183.16C103.07 182.34 102.35 182.08 100.91 182.08C98.4 182.08 96.91 183.55 96.91 186.03C96.91 188.51 98.4 189.98 100.91 189.98C103.49 189.98 104.95 188.56 104.95 186.03Z" fill="#ffffff" />
</svg>
