<svg xmlns="http://www.w3.org/2000/svg" viewBox="0 0 248 257" width="248" height="257">
  <path fill-rule="evenodd" d="M99.16 8.26C105.14 4.83 110.63 2.32 114.79 1.11C117.91 0.21 119.52 0.02 124.36 0C132 -0.03 134.37 0.72 147.88 7.46C153.58 10.3 159.63 13.13 161.33 13.74C164.63 14.92 172.3 16.54 181.63 18.03C193.42 19.92 198.08 21.89 203.34 27.18C208.33 32.21 213.77 41.03 216.72 48.89C218.62 53.97 220.85 56.83 231.22 67.48C240.66 77.18 244.23 81.56 246.39 86.12C247.78 89.03 247.81 89.26 247.95 96.21C248.07 102.38 247.9 104.6 246.68 112.93C245.39 121.74 245.3 123.16 245.53 129.81C245.69 134.24 246.16 139.04 246.73 142.13C247.91 148.5 248.42 162.99 247.6 166.74C246.2 173.11 243.01 177.55 231.27 189.44C221.38 199.48 219.22 202.41 214.45 212.33C208.97 223.74 206.05 227.96 201.04 231.79C195.55 235.97 189.41 238.02 176.27 240.05C162.5 242.17 158.71 243.43 147.66 249.53C135.79 256.09 132.89 257 123.98 257C118.03 257 117.06 256.89 113.78 255.82C111.78 255.16 105.79 252.41 100.45 249.7C86.99 242.86 84.95 242.22 65.44 238.75C53.91 236.69 48.26 234.03 43.17 228.24C39.18 223.71 33.52 213.83 30.51 206.17C28.89 202.03 27.41 200.19 17.71 190.32C5.36 177.75 2.45 173.72 0.69 166.78C-0.32 162.82 0.06 154.78 1.85 141.91C3.53 129.83 3.47 126.22 1.42 114.19C-0.19 104.69 -0.47 93.97 0.78 89.73C2.65 83.39 7.59 76.47 15.21 69.56C24.37 61.24 28.02 56.27 34.02 43.93C36.17 39.48 38.61 34.8 39.44 33.52C42.74 28.38 48.74 23.42 54.64 20.94C58.92 19.15 63.14 18.15 72.58 16.69C85.24 14.73 91.16 12.85 99.16 8.26ZM146.33 13.61C138.97 9.95 133.67 7.6 131.55 7.05C121.59 4.47 114.8 6.06 100.67 14.28C93.29 18.58 87.17 20.49 73.31 22.84C62.87 24.61 57.64 25.99 53.84 27.99C48.17 30.96 45.92 33.93 39.81 46.46C33.66 59.06 31.24 62.33 19.46 73.92C9.07 84.13 7.32 86.9 6.21 94.82C5.63 99.03 5.86 102.33 7.63 114.85C9.48 127.96 9.47 134.08 7.58 143.89C5.81 153.06 5.39 160.5 6.42 164.58C8.01 170.92 9.59 173.15 19.83 183.48C31.97 195.73 33.8 198.27 40.4 212.11C44.9 221.53 49.81 227.37 55.44 229.98C58.54 231.41 61.82 232.17 70.46 233.44C79.77 234.82 87.67 236.72 91.91 238.6C93.69 239.39 98.23 241.66 101.99 243.65C116.73 251.44 123.29 252.73 132.93 249.7C137.92 248.13 141.05 246.68 147 243.15C155.3 238.24 161.05 236.38 174.42 234.3C183.69 232.85 186.75 232.2 190.31 230.91C198.54 227.93 201.5 224.59 208.25 210.63C214.28 198.19 218.49 192.47 227.79 184.13C232.69 179.74 237.36 174.32 239.04 171.07C241 167.29 241.52 164.85 241.72 158.42C241.9 152.92 241.74 150.75 240.58 142.79C238.24 126.72 238.29 124.79 241.39 107.58C242.85 99.5 242.51 93.6 240.29 88.58C238.42 84.36 235.77 81.13 226.96 72.33C216.55 61.93 214.59 59.21 208.28 46.38C202.3 34.23 199.53 30.79 193.1 27.59C189.8 25.95 186.91 25.24 175.83 23.33C161.54 20.86 159.64 20.23 146.33 13.61ZM104.12 16.31C109.91 12.85 115.54 10.59 120.6 9.68C124.09 9.06 130.42 9.48 133.98 10.57C135.68 11.09 141.73 13.87 147.43 16.76C159.46 22.85 161.38 23.47 175.67 25.95C186.87 27.89 189.93 28.79 193.78 31.27C199.67 35.07 202.81 39.32 208.56 51.28C210.59 55.51 212.88 59.9 213.65 61.05C214.42 62.19 218.56 66.6 222.84 70.83C233.53 81.4 237.49 86.95 238.79 93.16C239.46 96.39 239.1 103.91 237.91 111.54C235.76 125.27 235.77 128.8 237.98 141.03C238.7 144.99 238.94 148.13 238.96 153.57C238.98 160.04 238.87 161.18 237.96 163.92C235.88 170.15 232.21 175.13 223.99 182.87C216.02 190.37 213.18 194.2 208.45 203.75C202.1 216.59 199.91 219.69 194.79 223.1C190.47 225.99 185.34 227.59 174.2 229.51C164.56 231.17 157.43 232.98 153.34 234.78C151.91 235.41 148.46 237.3 145.66 238.98C139.89 242.46 133.82 244.8 128.64 245.56C121.61 246.58 115.51 244.88 103.96 238.67C92.92 232.74 89.88 231.72 75.96 229.28C63.16 227.04 59.6 225.93 54.8 222.69C50.21 219.58 46.33 213.85 41.52 203.12C38 195.28 35.72 192.12 28.14 184.62C20.71 177.26 15.3 170.45 12.92 165.46C11.41 162.29 11.34 161.92 11.18 156.43C11.03 151.48 11.2 149.56 12.44 142.34C14.3 131.48 14.3 127.18 12.42 113.75C11.24 105.31 11.05 102.74 11.23 98.34C11.65 88.57 13.89 84.65 25.67 73.04C34.82 64.01 37.12 60.82 42.65 49.49C46.98 40.6 49.05 37.41 52.61 34.12C57.47 29.64 63.48 27.36 75.92 25.28C90.59 22.83 96.18 21.05 104.12 16.31ZM146.33 22.63C137.42 17.88 134.13 16.46 130.02 15.62C122.69 14.11 119.34 14.93 105.08 21.75C92.31 27.85 88.91 28.92 74.86 31.24C67.01 32.54 62.98 33.89 58.99 36.55C54.69 39.42 53.07 41.72 47.12 53.45C41.02 65.48 38.68 68.55 28.9 77.32C21.97 83.53 18.65 88.7 17.41 95.19C16.57 99.63 16.81 104.32 18.4 114.63C19.11 119.27 19.58 124.24 19.63 127.71L19.71 133.32L110.41 133.33C160.3 133.33 207.7 133.46 215.75 133.62L230.38 133.91L230.39 128.45C230.4 125.45 230.69 120.91 231.04 118.37C231.39 115.82 231.68 113.55 231.69 113.31C231.7 113.02 221.96 112.9 203.14 112.96L174.57 113.06L143.21 81.25L141.72 81.76C134.98 84.11 127.9 77.76 129.78 71.06C130.89 67.13 134.7 64.23 138.77 64.23C144.8 64.23 149.52 70.85 147.43 76.36C147.07 77.29 147.14 77.8 147.76 78.76C149.39 81.3 174.59 106.44 176.12 107.07C177.34 107.56 182.25 107.76 199.76 108C211.91 108.17 224.26 108.16 227.21 107.99L232.57 107.68L232.89 106.09C233.06 105.22 233.2 102.62 233.2 100.32C233.19 95.34 232.11 91.35 229.65 87.23C228.13 84.68 226.71 83.2 216.62 73.65C212.35 69.62 209.5 65.27 203.55 53.8C196.63 40.43 194.74 38.02 188.97 35.15C185.45 33.41 181.5 32.41 170.74 30.56C158.82 28.5 155.07 27.28 146.33 22.63ZM137.47 76.98C141.65 78.36 144.79 73.36 141.61 70.41C140.95 69.79 140.05 69.51 138.73 69.51C133.98 69.51 132.97 75.5 137.47 76.98ZM230.51 166.53C233.48 160.67 234.02 153.03 232.15 143.56L231.09 138.17L19.12 138.17L18.62 140.48C17.62 145.09 16.84 151.23 16.84 154.55L16.84 157.31L17.94 157.31C23.02 156.65 74.56 155.83 77.93 157.62C78.65 158.01 85.82 164.9 93.86 172.95L108.47 187.58L110.14 187.03C115.87 185.14 122.13 189.24 122.64 195.21C122.88 198.04 121.99 200.02 119.42 202.38C116.04 205.48 112.14 205.76 108.3 203.16C104.82 200.8 103.3 196.17 104.82 192.54L105.54 190.82L91.36 176.93C83.56 169.29 76.65 162.74 76.02 162.38C75.02 161.81 70.87 161.72 46.3 161.72C17.94 161.72 17.74 161.72 18.01 162.6C19.29 166.77 21.88 170.1 31.2 179.54C36.01 184.42 40.47 189.36 41.52 190.98C42.54 192.56 45.43 198.03 47.95 203.15C51.88 211.15 52.9 212.87 55.26 215.38C59.82 220.24 64.59 222.05 79.25 224.46C91.15 226.42 93.77 227.27 104.2 232.54C114.21 237.61 117.17 238.74 122.09 239.43C128.7 240.34 134.52 238.68 146.77 232.38C157.07 227.08 159.88 226.17 172.8 224C181.66 222.52 185.67 221.45 189.46 219.54C194.8 216.84 197.1 213.83 203 201.72C208.6 190.24 209.64 188.81 218.23 180.64C225.99 173.27 228.62 170.25 230.51 166.53ZM117.43 195.83C117.43 194.5 117.15 193.74 116.35 192.94C115.53 192.13 114.8 191.86 113.34 191.86C110.8 191.86 109.29 193.34 109.29 195.83C109.29 198.31 110.8 199.79 113.34 199.79C115.95 199.79 117.43 198.35 117.43 195.83Z" fill="#ffffff" />
</svg>
